<svg width="1032" height="236" xmlns="http://www.w3.org/2000/svg" xmlns:xlink="http://www.w3.org/1999/xlink" overflow="hidden"><defs><clipPath id="clip0"><rect x="124" y="127" width="1032" height="236"/></clipPath><clipPath id="clip1"><rect x="124" y="128" width="1032" height="220"/></clipPath><clipPath id="clip2"><rect x="124" y="128" width="1032" height="220"/></clipPath><clipPath id="clip3"><rect x="124" y="128" width="1032" height="220"/></clipPath><clipPath id="clip4"><rect x="124" y="128" width="1032" height="220"/></clipPath></defs><g clip-path="url(#clip0)" transform="translate(-124 -127)"><g clip-path="url(#clip1)"><g clip-path="url(#clip2)"><g clip-path="url(#clip3)"><g clip-path="url(#clip4)"><text fill="#333F50" font-family="Ubuntu,Ubuntu_MSFontService,sans-serif" font-weight="700" font-size="37" transform="matrix(2.752 0 0 2.75 387.267 263)">meet<tspan font-size="37" x="96" y="0">2</tspan>connect</text><path d="M638 1325.5C638 1314.87 646.619 1306.25 657.25 1306.25L663.666 1306.25 663.666 1306.25 702.166 1306.25 772.75 1306.25C783.381 1306.25 792 1314.87 792 1325.5L792 1373.62 792 1373.62 792 1402.5 792 1402.5C792 1413.13 783.381 1421.75 772.75 1421.75L702.166 1421.75 675.109 1457.54 663.666 1421.75 657.25 1421.75C646.619 1421.75 638 1413.13 638 1402.5L638 1402.5 638 1373.62 638 1373.62Z" fill="#BFBFBF" fill-rule="evenodd" transform="matrix(1.00073 0 0 1 -514.464 -1120.5)"/><path d="M0 19.2503C-4.90157e-15 8.61866 8.61866-4.90157e-15 19.2503-4.90157e-15L25.6667 0 25.6667 0 64.1666 0 134.75 0C145.381-4.90157e-15 154 8.61866 154 19.2503L154 67.375 154 67.375 154 96.25 154 96.2497C154 106.881 145.381 115.5 134.75 115.5L64.1666 115.5 37.1093 151.295 25.6667 115.5 19.2503 115.5C8.61866 115.5-2.45078e-15 106.881-2.45078e-15 96.2497L0 96.25 0 67.375 0 67.375Z" fill="#333F50" fill-rule="evenodd" transform="matrix(-1.00073 0 0 1 355.168 139)"/></g></g></g></g><text fill="#333F50" font-family="Ubuntu,Ubuntu_MSFontService,sans-serif" font-weight="400" font-size="32" transform="translate(785.6 336)">Powered by Conbility</text></g></svg>